<?xml version="1.0" encoding="utf-8"?>
<!-- Generator: Adobe Illustrator 16.0.0, SVG Export Plug-In . SVG Version: 6.00 Build 0)  -->
<!DOCTYPE svg PUBLIC "-//W3C//DTD SVG 1.1//EN" "http://www.w3.org/Graphics/SVG/1.1/DTD/svg11.dtd">
<svg version="1.1" id="Layer_1" xmlns="http://www.w3.org/2000/svg" xmlns:xlink="http://www.w3.org/1999/xlink" x="0px" y="0px"
	 width="1000px" height="1000px" viewBox="0 0 1000 1000" enable-background="new 0 0 1000 1000" xml:space="preserve">
<g>
	<g>
		<path fill="#FFFFFF" d="M812.225,446.069c-16.714,27.626-52.041,30.88-81.924,30.639c-4.1-12.844-10.017-25.485-18.529-35.733
			c-13.289-16.014-30.797-21.426-49.776-28.575c-11.138-4.187-22.267-8.381-33.364-12.667c0.75-24.975,15.842-52.233,37.555-64.138
			c9.969-5.47,1.079-20.701-8.89-15.226c-24.822,13.606-43.034,43.685-45.945,72.552c-4.04-1.613-8.079-3.234-12.104-4.901
			c-23.516-9.749-47.614-17.488-62.449-39.42c-7.208-10.646-12.269-23.259-15.541-36.41c-0.016-1.25-0.33-2.478-0.825-3.633
			c-2.703-12.169-3.918-24.681-3.859-36.412c0.059-11.371-17.569-11.366-17.629,0c-0.061,11.796,1.228,23.69,3.649,35.355
			c-25.954,13.824-60.686,19.498-88.708,20.566c-28.125,1.066-58.254-15.436-73.063-39.505c-5.946-9.664-21.197-0.811-15.226,8.901
			c9.787,15.906,25.006,29.193,42.243,37.703c-7.275,18.346-13.779,37.592-22.958,54.886c-8.864,16.686-27.208,26.758-45.888,33.158
			c-12.237-30.057-39.377-51.558-68.591-64.641c-10.282-4.606-19.26,10.582-8.897,15.225c25.022,11.208,49.423,28.717,60.476,54.333
			c-2.812,0.69-5.575,1.32-8.225,1.885c-25.696,5.454-52.189,7.016-78.365,8.458c-18.124,0.998-35.076,15.604-47.37,27.854
			c-8.067,8.029,4.403,20.499,12.467,12.47c6.414-6.399,13.485-12.002,21.086-16.924c10.225-6.626,20.91-6.114,32.566-6.902
			c29.164-1.952,59.089-4.915,87.03-13.875c22.815-7.317,46.145-21.311,58.935-42.144c10.448-17.022,16.799-38.191,24.1-57.371
			c5.03,1.482,10.134,2.583,15.241,3.183c28.188,3.319,58.452-3.753,85.344-11.879c7.38-2.235,15.038-4.866,22.279-8.151
			c2.08,6.685,4.498,13.239,7.294,19.567c6.77,15.335,17.042,26.656,29.25,35.646c-18.214,20.834-30.271,47.931-34.626,76.053
			c-31.837-9.702-65.551-4.795-90.038,19.727c-8.037,8.052,4.427,20.522,12.469,12.467c20.911-20.943,49.175-23.09,75.853-14.26
			c-1.171,32.291,8.078,64.44,30.11,88.604c7.673,8.423,20.092-4.08,12.462-12.461c-39.866-43.766-29.354-118.876,8.89-160.606
			c17.58,9.633,37.463,16.391,56.246,23.833c22.6,8.95,47.001,15.586,68.683,26.473c16.53,8.295,25.03,27.5,30.375,44.126
			c7.371,22.921,9.972,48.351,9.114,72.403c-0.402,11.375,17.238,11.338,17.629,0c0.736-20.637-1.413-41.764-5.857-62.016
			c35.091-0.39,73.066-7.151,92.525-39.322C833.336,445.207,818.097,436.351,812.225,446.069z"/>
		<path fill="#FFFFFF" d="M501.002-0.715C225.017-0.715,1.285,223.013,1.285,499.002c0,275.981,223.731,499.711,499.718,499.711
			c275.981,0,499.711-223.73,499.711-499.711C1000.714,223.013,776.983-0.715,501.002-0.715z M865.967,681.197
			c-22.63,29.97-92.86,43.481-92.86,43.481s-20.854,34.387-49.365,44.671C695.239,779.64,645,781.111,645,781.111
			s47.013,104.312,52.881,116.369c-2.929,5.284-36.95,26.984-69.925,27.621C621.768,896.879,523.912,739.373,501,712.934
			c12.928-3.237,33.497-18.811,33.497-18.811s44.674-2.933,74.927-7.64c30.275-4.701,81.399-41.728,81.399-41.728
			s82.586-10.289,106.974-16.158c24.384-5.877,92.852-33.209,92.852-33.209S888.593,651.217,865.967,681.197z M870.663,576.585
			c0,0-42.312,23.8-77.569,30.557c-35.27,6.756-110.498,14.114-110.498,14.114s-36.142,26.148-66.397,42.598
			c-30.271,16.466-84.058,3.238-84.058,3.238s-24.973,30.854-74.044,31.732c-49.07,0.88-88.155-37.611-88.155-37.611
			s-30.854-0.888-62.295-21.158c-31.446-20.28-30.563-63.471-30.563-63.471s-18.804,9.399-47.019,10.582
			c-28.205,1.166-48.188-11.763-48.188-11.763s-21.454,12.638-59.951,15.276c-53.776,3.825-58.768-83.454-58.768-83.454
			s-13.363-15.272-13.363-59.94c0-44.671,26.293-83.456,52.151-108.141c14.104-42.313,9.407-42.313,47.021-70.528
			c21.532-15.868,31.73-23.505,56.417-28.207c31.739-30.562,21.742-23.209,61.12-41.138c39.379-17.925,77.578-9.404,77.578-9.404
			s19.981-24.521,68.174-32.974c48.195-8.462,72.878,9.465,72.878,9.465s31.154-16.582,70.522-9.465
			c39.389,7.113,66.997,32.974,66.997,32.974s48.186-17.337,91.687,1.179c43.485,18.508,54.07,50.543,54.07,50.543
			s36.441-4.998,69.343,30.555c32.911,35.561,30.567,63.47,30.567,63.47s30.997,10.874,47.019,43.492
			c16.019,32.621,0,96.384,0,96.384s10.583,2.063,16.019,43.494C936.792,560.418,870.663,576.585,870.663,576.585z"/>
	</g>
</g>
</svg>
