<?xml version="1.0" encoding="utf-8"?>
<!-- Generator: Adobe Illustrator 19.0.0, SVG Export Plug-In . SVG Version: 6.00 Build 0)  -->
<svg version="1.1" id="Layer_1" xmlns="http://www.w3.org/2000/svg" xmlns:xlink="http://www.w3.org/1999/xlink" x="0px" y="0px"
	 viewBox="250 -250 1000 1000" style="enable-background:new 250 -250 1000 1000;" xml:space="preserve">
<style type="text/css">
	.st0{fill:#8BC34A;}
</style>
<g>
	<g>
		<path class="st0" d="M1062.2,196.1c-16.7,27.6-52,30.9-81.9,30.6c-4.1-12.8-10-25.5-18.5-35.7c-13.3-16-30.8-21.4-49.8-28.6
			c-11.1-4.2-22.3-8.4-33.4-12.7c0.8-25,15.8-52.2,37.6-64.1c10-5.5,1.1-20.7-8.9-15.2c-24.8,13.6-43,43.7-45.9,72.6
			c-4-1.6-8.1-3.2-12.1-4.9c-23.5-9.7-47.6-17.5-62.4-39.4c-7.2-10.6-12.3-23.3-15.5-36.4c0-1.3-0.3-2.5-0.8-3.6
			c-2.7-12.2-3.9-24.7-3.9-36.4c0.1-11.4-17.6-11.4-17.6,0c-0.1,11.8,1.2,23.7,3.6,35.4c-26,13.8-60.7,19.5-88.7,20.6
			c-28.1,1.1-58.3-15.4-73.1-39.5c-5.9-9.7-21.2-0.8-15.2,8.9c9.8,15.9,25,29.2,42.2,37.7c-7.3,18.3-13.8,37.6-23,54.9
			c-8.9,16.7-27.2,26.8-45.9,33.2c-12.2-30.1-39.4-51.6-68.6-64.6c-10.3-4.6-19.3,10.6-8.9,15.2c25,11.2,49.4,28.7,60.5,54.3
			c-2.8,0.7-5.6,1.3-8.2,1.9c-25.7,5.5-52.2,7-78.4,8.5c-18.1,1-35.1,15.6-47.4,27.9c-8.1,8,4.4,20.5,12.5,12.5
			c6.4-6.4,13.5-12,21.1-16.9c10.2-6.6,20.9-6.1,32.6-6.9c29.2-2,59.1-4.9,87-13.9c22.8-7.3,46.1-21.3,58.9-42.1
			c10.4-17,16.8-38.2,24.1-57.4c5,1.5,10.1,2.6,15.2,3.2c28.2,3.3,58.5-3.8,85.3-11.9c7.4-2.2,15-4.9,22.3-8.2
			c2.1,6.7,4.5,13.2,7.3,19.6c6.8,15.3,17,26.7,29.3,35.6c-18.2,20.8-30.3,47.9-34.6,76.1c-31.8-9.7-65.6-4.8-90,19.7
			c-8,8.1,4.4,20.5,12.5,12.5c20.9-20.9,49.2-23.1,75.9-14.3c-1.2,32.3,8.1,64.4,30.1,88.6c7.7,8.4,20.1-4.1,12.5-12.5
			c-39.9-43.8-29.4-118.9,8.9-160.6c17.6,9.6,37.5,16.4,56.2,23.8c22.6,9,47,15.6,68.7,26.5c16.5,8.3,25,27.5,30.4,44.1
			c7.4,22.9,10,48.4,9.1,72.4c-0.4,11.4,17.2,11.3,17.6,0c0.7-20.6-1.4-41.8-5.9-62c35.1-0.4,73.1-7.2,92.5-39.3
			C1083.3,195.2,1068.1,186.4,1062.2,196.1z"/>
		<path class="st0" d="M751-250.7C475-250.7,251.3-27,251.3,249c0,276,223.7,499.7,499.7,499.7c276,0,499.7-223.7,499.7-499.7
			C1250.7-27,1027-250.7,751-250.7z M1116,431.2c-22.6,30-92.9,43.5-92.9,43.5s-20.9,34.4-49.4,44.7c-28.5,10.3-78.7,11.8-78.7,11.8
			s47,104.3,52.9,116.4c-2.9,5.3-37,27-69.9,27.6c-6.2-28.2-104-185.7-127-212.2c12.9-3.2,33.5-18.8,33.5-18.8s44.7-2.9,74.9-7.6
			c30.3-4.7,81.4-41.7,81.4-41.7s82.6-10.3,107-16.2c24.4-5.9,92.9-33.2,92.9-33.2S1138.6,401.2,1116,431.2z M1120.7,326.6
			c0,0-42.3,23.8-77.6,30.6c-35.3,6.8-110.5,14.1-110.5,14.1s-36.1,26.1-66.4,42.6c-30.3,16.5-84.1,3.2-84.1,3.2s-25,30.9-74,31.7
			c-49.1,0.9-88.2-37.6-88.2-37.6s-30.9-0.9-62.3-21.2c-31.4-20.3-30.6-63.5-30.6-63.5s-18.8,9.4-47,10.6
			c-28.2,1.2-48.2-11.8-48.2-11.8s-21.5,12.6-60,15.3c-53.8,3.8-58.8-83.5-58.8-83.5s-13.4-15.3-13.4-59.9
			c0-44.7,26.3-83.5,52.2-108.1c14.1-42.3,9.4-42.3,47-70.5c21.5-15.9,31.7-23.5,56.4-28.2c31.7-30.6,21.7-23.2,61.1-41.1
			c39.4-17.9,77.6-9.4,77.6-9.4s20-24.5,68.2-33c48.2-8.5,72.9,9.5,72.9,9.5s31.2-16.6,70.5-9.5c39.4,7.1,67,33,67,33
			s48.2-17.3,91.7,1.2c43.5,18.5,54.1,50.5,54.1,50.5s36.4-5,69.3,30.6c32.9,35.6,30.6,63.5,30.6,63.5s31,10.9,47,43.5
			c16,32.6,0,96.4,0,96.4s10.6,2.1,16,43.5C1186.8,310.4,1120.7,326.6,1120.7,326.6z"/>
	</g>
</g>
</svg>
