<?xml version="1.0" encoding="utf-8"?>
<!-- Generator: Adobe Illustrator 16.0.0, SVG Export Plug-In . SVG Version: 6.00 Build 0)  -->
<!DOCTYPE svg PUBLIC "-//W3C//DTD SVG 1.1//EN" "http://www.w3.org/Graphics/SVG/1.1/DTD/svg11.dtd">
<svg version="1.1" id="Layer_1" xmlns="http://www.w3.org/2000/svg" xmlns:xlink="http://www.w3.org/1999/xlink" x="0px" y="0px"
	 width="512px" height="512px" viewBox="0 0 512 512" enable-background="new 0 0 512 512" xml:space="preserve">
<circle id="Background" fill="#E0E0E0" cx="256" cy="256" r="256"/>
<linearGradient id="Shadow_1_" gradientUnits="userSpaceOnUse" x1="487.3896" y1="-80.2646" x2="172.4152" y2="234.71" gradientTransform="matrix(1 0 0 -1 -41.6602 348.04)">
	<stop  offset="0" style="stop-color:#263238;stop-opacity:0"/>
	<stop  offset="1" style="stop-color:#263238;stop-opacity:0.1"/>
</linearGradient>
<path id="Shadow" fill="url(#Shadow_1_)" d="M508.367,299.109c-0.209-0.235-0.43-0.461-0.663-0.672
	c-0.22-0.252-0.455-0.488-0.703-0.713c-0.22-0.252-0.456-0.49-0.705-0.715c-0.22-0.252-0.455-0.488-0.703-0.712
	c-0.22-0.252-0.454-0.487-0.702-0.712c-0.219-0.25-0.451-0.484-0.696-0.707c-0.224-0.255-0.46-0.494-0.71-0.72
	c-0.221-0.253-0.456-0.488-0.704-0.714c-0.218-0.248-0.451-0.482-0.696-0.704c-0.22-0.253-0.456-0.49-0.704-0.714
	c-0.219-0.252-0.454-0.487-0.701-0.711c-0.222-0.256-0.46-0.494-0.711-0.721c-0.217-0.248-0.448-0.48-0.692-0.701
	c-0.222-0.256-0.458-0.494-0.708-0.72c-0.22-0.25-0.453-0.485-0.699-0.709c-0.222-0.253-0.458-0.491-0.707-0.716
	c-0.218-0.249-0.45-0.482-0.695-0.705c-0.222-0.253-0.458-0.49-0.707-0.717c-0.22-0.251-0.454-0.487-0.701-0.71
	c-0.222-0.255-0.458-0.492-0.708-0.718c-0.22-0.252-0.453-0.487-0.7-0.711c-0.22-0.25-0.453-0.485-0.7-0.709
	c-0.221-0.252-0.454-0.487-0.702-0.711c-0.22-0.252-0.455-0.488-0.702-0.713c-0.221-0.252-0.456-0.488-0.704-0.714
	c-0.219-0.251-0.454-0.487-0.701-0.71c-0.219-0.251-0.452-0.486-0.699-0.711c-0.223-0.254-0.46-0.492-0.712-0.72
	c-0.219-0.25-0.451-0.485-0.698-0.708c-0.22-0.251-0.453-0.486-0.699-0.709c-0.22-0.252-0.455-0.489-0.703-0.713
	c-0.221-0.254-0.457-0.49-0.706-0.715c-0.22-0.252-0.455-0.489-0.704-0.715c-0.218-0.248-0.45-0.482-0.694-0.705
	c-0.224-0.254-0.462-0.494-0.713-0.721c-0.217-0.248-0.448-0.482-0.692-0.703c-0.222-0.254-0.459-0.492-0.71-0.719
	c-0.218-0.249-0.45-0.482-0.695-0.705c-0.222-0.255-0.459-0.492-0.71-0.72c-0.218-0.249-0.451-0.483-0.698-0.707
	c-0.22-0.253-0.456-0.49-0.705-0.715c-0.22-0.253-0.453-0.488-0.701-0.712c-0.221-0.252-0.456-0.488-0.704-0.713
	c-0.22-0.252-0.453-0.486-0.7-0.711c-0.22-0.25-0.454-0.486-0.702-0.711c-0.221-0.254-0.457-0.49-0.707-0.717
	c-0.218-0.248-0.452-0.484-0.698-0.707c-0.22-0.252-0.455-0.488-0.702-0.713c-0.222-0.253-0.458-0.49-0.707-0.716
	c-0.22-0.251-0.453-0.487-0.7-0.71c-0.22-0.251-0.452-0.486-0.699-0.709c-0.221-0.253-0.457-0.49-0.706-0.717
	c-0.219-0.25-0.453-0.485-0.7-0.709c-0.222-0.254-0.458-0.491-0.707-0.717c-0.218-0.248-0.451-0.483-0.697-0.707
	c-0.221-0.252-0.457-0.489-0.705-0.715c-0.22-0.25-0.452-0.484-0.698-0.707c-0.223-0.254-0.458-0.492-0.708-0.719
	c-0.222-0.252-0.456-0.488-0.704-0.713c-0.218-0.249-0.45-0.482-0.695-0.705c-0.221-0.253-0.457-0.491-0.706-0.716
	c-0.221-0.252-0.457-0.49-0.705-0.714c-0.22-0.25-0.454-0.487-0.701-0.71c-0.22-0.252-0.455-0.489-0.703-0.714
	c-0.221-0.25-0.454-0.487-0.701-0.71c-0.219-0.25-0.453-0.487-0.7-0.71c-0.221-0.253-0.458-0.492-0.707-0.717
	c-0.219-0.25-0.452-0.485-0.698-0.707c-0.221-0.253-0.457-0.491-0.706-0.715c-0.219-0.251-0.453-0.486-0.698-0.709
	c-0.223-0.253-0.458-0.491-0.707-0.716c-0.22-0.25-0.452-0.485-0.698-0.707c-0.222-0.254-0.458-0.492-0.708-0.717
	c-0.218-0.25-0.45-0.484-0.695-0.706c-0.222-0.254-0.46-0.494-0.71-0.719c-0.22-0.251-0.454-0.488-0.702-0.711
	c-0.219-0.25-0.452-0.486-0.699-0.708c-0.22-0.252-0.454-0.489-0.703-0.713c-0.22-0.251-0.453-0.487-0.701-0.711
	c-0.221-0.251-0.454-0.488-0.702-0.712c-0.221-0.252-0.457-0.49-0.705-0.714c-0.219-0.25-0.452-0.485-0.699-0.708
	c-0.221-0.253-0.458-0.492-0.707-0.717c-0.22-0.251-0.454-0.487-0.702-0.71c-0.22-0.251-0.453-0.488-0.701-0.712
	c-0.221-0.251-0.455-0.488-0.703-0.712c-0.22-0.25-0.452-0.486-0.699-0.709c-0.222-0.254-0.458-0.492-0.709-0.718
	c-0.218-0.25-0.45-0.484-0.695-0.706c-0.221-0.253-0.457-0.491-0.706-0.715c-0.22-0.251-0.455-0.488-0.703-0.712
	c-0.22-0.251-0.454-0.488-0.7-0.711c-0.222-0.253-0.457-0.49-0.706-0.715c-0.22-0.251-0.453-0.487-0.7-0.71
	c-0.22-0.252-0.456-0.489-0.704-0.713c-0.22-0.251-0.454-0.488-0.701-0.711c-0.219-0.25-0.453-0.486-0.7-0.709
	c-0.22-0.253-0.456-0.491-0.705-0.715c-0.221-0.253-0.457-0.491-0.706-0.715c-0.219-0.25-0.451-0.485-0.697-0.708
	c-0.223-0.253-0.458-0.491-0.707-0.716c-0.218-0.25-0.451-0.484-0.696-0.706c-0.222-0.254-0.459-0.493-0.709-0.718
	c-0.219-0.25-0.452-0.485-0.698-0.707c-0.221-0.253-0.457-0.491-0.706-0.716c-0.219-0.25-0.453-0.486-0.699-0.708
	c-0.221-0.252-0.455-0.49-0.703-0.714c-0.222-0.252-0.457-0.49-0.706-0.715c-0.22-0.25-0.452-0.485-0.698-0.707
	c-0.219-0.252-0.454-0.488-0.702-0.712c-0.22-0.253-0.456-0.49-0.705-0.715c-0.221-0.252-0.456-0.49-0.705-0.715
	c-0.219-0.25-0.452-0.485-0.698-0.707c-0.22-0.252-0.454-0.489-0.703-0.713c-0.22-0.251-0.454-0.488-0.702-0.712
	c-0.221-0.252-0.456-0.49-0.705-0.714c-0.219-0.25-0.453-0.487-0.7-0.71c-0.22-0.251-0.454-0.487-0.701-0.711
	c-0.221-0.252-0.456-0.489-0.704-0.713c-0.221-0.252-0.456-0.49-0.705-0.714c-0.219-0.251-0.452-0.487-0.699-0.71
	c-0.221-0.252-0.455-0.489-0.703-0.712c-0.221-0.251-0.454-0.488-0.702-0.711c-0.221-0.253-0.457-0.491-0.706-0.715
	c-0.218-0.25-0.451-0.484-0.697-0.707c-0.221-0.253-0.457-0.491-0.706-0.716c-0.22-0.251-0.454-0.488-0.702-0.711
	c-0.22-0.252-0.454-0.489-0.701-0.712c-0.219-0.25-0.451-0.484-0.696-0.706c-0.225-0.256-0.463-0.497-0.716-0.725
	c-0.219-0.25-0.451-0.484-0.697-0.707c-0.219-0.25-0.453-0.487-0.7-0.71c-0.221-0.252-0.456-0.49-0.705-0.714
	c-0.219-0.25-0.453-0.486-0.7-0.709c-0.22-0.252-0.454-0.49-0.703-0.714c-0.221-0.252-0.455-0.49-0.704-0.714
	c-1.538-1.76-3.793-2.878-6.313-2.878h-62.639c-0.125-0.13-0.267-0.242-0.407-0.354c-0.204-0.268-0.44-0.505-0.704-0.713
	c-0.203-0.267-0.438-0.503-0.702-0.711c-0.203-0.267-0.438-0.503-0.701-0.711c-0.203-0.267-0.438-0.503-0.701-0.712
	c-0.204-0.268-0.441-0.505-0.705-0.714c-0.204-0.268-0.44-0.505-0.704-0.713c-0.202-0.265-0.438-0.501-0.698-0.708
	c-0.204-0.268-0.44-0.505-0.705-0.714c-0.204-0.268-0.439-0.505-0.704-0.713c-0.203-0.266-0.438-0.502-0.7-0.709
	c-0.202-0.267-0.438-0.504-0.702-0.713c-0.203-0.267-0.439-0.503-0.702-0.711c-0.204-0.267-0.44-0.504-0.703-0.712
	c-0.204-0.268-0.44-0.506-0.705-0.714c-0.203-0.266-0.438-0.502-0.7-0.709c-0.203-0.267-0.438-0.504-0.703-0.713
	c-0.203-0.267-0.438-0.503-0.702-0.711c-0.204-0.267-0.438-0.504-0.703-0.712c-0.202-0.267-0.438-0.504-0.702-0.712
	c-0.203-0.267-0.438-0.503-0.701-0.711c-0.204-0.267-0.439-0.504-0.703-0.712c-0.204-0.268-0.44-0.505-0.704-0.714
	c-0.203-0.266-0.438-0.503-0.702-0.711c-0.203-0.268-0.438-0.505-0.703-0.713c-0.203-0.266-0.438-0.502-0.7-0.709
	c-0.204-0.269-0.441-0.507-0.706-0.716c-0.202-0.265-0.438-0.501-0.698-0.708c-0.204-0.268-0.441-0.506-0.706-0.715
	c-0.203-0.267-0.438-0.503-0.701-0.711c-0.203-0.267-0.438-0.503-0.701-0.711c-0.204-0.267-0.438-0.504-0.703-0.712
	c-0.204-0.268-0.439-0.505-0.704-0.713c-0.203-0.268-0.439-0.505-0.703-0.713c-0.203-0.266-0.438-0.502-0.7-0.709
	c-0.204-0.268-0.44-0.505-0.704-0.714c-0.203-0.266-0.439-0.503-0.702-0.711c-0.203-0.267-0.439-0.504-0.702-0.712
	c-0.204-0.267-0.438-0.503-0.702-0.711c-0.204-0.268-0.439-0.505-0.704-0.713c-0.203-0.266-0.438-0.502-0.699-0.71
	c-0.204-0.268-0.44-0.505-0.705-0.714c-0.203-0.267-0.439-0.504-0.702-0.712c-0.204-0.267-0.439-0.504-0.703-0.712
	c-0.203-0.267-0.439-0.503-0.702-0.711c-0.203-0.267-0.438-0.504-0.703-0.712c-0.204-0.268-0.439-0.505-0.704-0.713
	c-0.203-0.266-0.438-0.502-0.7-0.71c-0.203-0.268-0.439-0.505-0.703-0.713c-0.203-0.266-0.438-0.503-0.701-0.71
	c-0.203-0.267-0.439-0.504-0.702-0.712c-0.204-0.268-0.44-0.505-0.705-0.714c-0.203-0.267-0.438-0.503-0.701-0.711
	c-0.203-0.267-0.438-0.504-0.703-0.712c-0.204-0.268-0.439-0.505-0.704-0.713c-0.202-0.266-0.438-0.502-0.699-0.709
	c-0.203-0.267-0.439-0.504-0.702-0.712c-0.204-0.268-0.439-0.504-0.703-0.713c-0.204-0.267-0.44-0.504-0.704-0.713
	c-0.203-0.267-0.439-0.504-0.702-0.712c-0.203-0.267-0.438-0.503-0.702-0.711c-0.203-0.268-0.438-0.505-0.703-0.713
	c-0.203-0.267-0.438-0.504-0.702-0.712c-0.203-0.267-0.438-0.503-0.701-0.711c-0.204-0.268-0.44-0.505-0.704-0.713
	c-0.204-0.267-0.439-0.503-0.703-0.711c-0.203-0.267-0.439-0.504-0.702-0.712c-0.203-0.266-0.438-0.502-0.7-0.71
	c-0.203-0.267-0.439-0.504-0.703-0.712c-0.203-0.267-0.439-0.505-0.703-0.713c-0.203-0.267-0.438-0.503-0.703-0.711
	c-0.203-0.268-0.439-0.506-0.704-0.715c-0.203-0.266-0.438-0.502-0.7-0.71c-0.203-0.266-0.438-0.503-0.701-0.71
	c-0.205-0.269-0.441-0.506-0.706-0.715c-0.729-0.958-1.872-1.585-3.17-1.585H100.937c-2.209,0-4,1.791-4,4v119.168
	c0,1.273,0.606,2.396,1.533,3.128c0.204,0.266,0.44,0.504,0.703,0.713c0.203,0.266,0.439,0.502,0.702,0.709
	c0.204,0.269,0.439,0.506,0.703,0.713c0.204,0.268,0.44,0.504,0.703,0.713c0.203,0.267,0.438,0.503,0.701,0.711
	c0.204,0.268,0.44,0.506,0.705,0.714c0.204,0.267,0.439,0.504,0.703,0.712c0.204,0.268,0.439,0.504,0.703,0.712
	c0.204,0.267,0.439,0.504,0.703,0.712c0.204,0.268,0.439,0.504,0.703,0.712c0.203,0.267,0.438,0.503,0.701,0.712
	c0.204,0.268,0.44,0.504,0.705,0.713c0.203,0.268,0.439,0.504,0.702,0.711c0.204,0.269,0.44,0.506,0.704,0.713
	c0.204,0.269,0.439,0.504,0.703,0.713c0.204,0.267,0.439,0.504,0.702,0.712c0.204,0.267,0.439,0.504,0.702,0.711
	c0.204,0.269,0.44,0.506,0.704,0.715c0.203,0.267,0.438,0.502,0.701,0.71c0.204,0.268,0.44,0.505,0.704,0.714
	c0.204,0.267,0.439,0.505,0.703,0.712c0.203,0.266,0.438,0.502,0.7,0.709c0.205,0.27,0.442,0.508,0.707,0.717
	c0.203,0.267,0.438,0.502,0.701,0.711c0.204,0.267,0.439,0.502,0.702,0.711c0.204,0.268,0.44,0.505,0.704,0.713
	c0.203,0.267,0.438,0.503,0.701,0.711c0.204,0.268,0.441,0.506,0.705,0.715c0.204,0.268,0.439,0.503,0.703,0.711
	c0.203,0.266,0.438,0.502,0.7,0.71c0.204,0.269,0.44,0.506,0.705,0.714c0.203,0.268,0.438,0.503,0.701,0.711
	c0.204,0.268,0.441,0.506,0.705,0.715c0.203,0.267,0.438,0.502,0.701,0.711c0.204,0.267,0.44,0.504,0.704,0.713
	c0.204,0.267,0.439,0.502,0.702,0.711c0.203,0.267,0.438,0.502,0.702,0.711c0.204,0.268,0.44,0.506,0.704,0.714
	c0.204,0.268,0.44,0.505,0.704,0.713c0.203,0.267,0.438,0.503,0.701,0.711c0.204,0.267,0.44,0.504,0.703,0.713
	c0.204,0.267,0.439,0.503,0.702,0.711c0.203,0.267,0.439,0.503,0.702,0.711c0.204,0.269,0.44,0.505,0.704,0.714
	c0.204,0.268,0.439,0.504,0.702,0.711c0.204,0.269,0.44,0.506,0.704,0.713c0.204,0.269,0.439,0.506,0.703,0.713
	c0.204,0.268,0.439,0.504,0.702,0.712c0.204,0.267,0.439,0.504,0.703,0.712c0.204,0.268,0.44,0.505,0.704,0.713
	c0.203,0.268,0.439,0.504,0.702,0.711c0.204,0.268,0.44,0.505,0.704,0.713c0.203,0.268,0.439,0.504,0.702,0.712
	c0.204,0.267,0.439,0.503,0.702,0.712c0.204,0.268,0.441,0.506,0.706,0.715c0.204,0.267,0.439,0.504,0.703,0.711
	c0.203,0.267,0.438,0.502,0.699,0.709c0.204,0.269,0.441,0.507,0.706,0.716c0.203,0.266,0.438,0.502,0.701,0.71
	c0.204,0.268,0.441,0.506,0.705,0.715c0.204,0.266,0.439,0.503,0.702,0.71c0.204,0.267,0.439,0.503,0.701,0.711
	c0.204,0.269,0.441,0.506,0.705,0.715c0.203,0.267,0.438,0.502,0.701,0.71c0.204,0.268,0.441,0.506,0.705,0.715
	c0.203,0.267,0.438,0.502,0.7,0.709c0.204,0.269,0.44,0.506,0.705,0.715c0.204,0.267,0.439,0.504,0.702,0.711
	c0.203,0.267,0.438,0.502,0.701,0.711c0.204,0.268,0.44,0.505,0.705,0.714c0.204,0.268,0.44,0.505,0.705,0.714
	c0.203,0.266,0.438,0.502,0.701,0.709c0.204,0.268,0.439,0.505,0.703,0.713c0.203,0.268,0.438,0.503,0.701,0.711
	c0.205,0.268,0.442,0.506,0.707,0.717c0.202,0.264,0.436,0.498,0.697,0.705c0.205,0.27,0.442,0.508,0.708,0.717
	c0.203,0.268,0.439,0.504,0.702,0.711c0.204,0.268,0.439,0.504,0.702,0.713c0.204,0.268,0.44,0.505,0.704,0.714
	c0.203,0.266,0.438,0.502,0.7,0.709c0.204,0.268,0.44,0.505,0.704,0.713c0.204,0.269,0.439,0.504,0.703,0.712
	c0.204,0.268,0.44,0.505,0.704,0.714c0.203,0.267,0.439,0.503,0.702,0.711c0.203,0.267,0.438,0.503,0.701,0.711
	c0.205,0.269,0.442,0.507,0.708,0.718c0.203,0.265,0.437,0.5,0.698,0.707c0.204,0.268,0.44,0.506,0.705,0.713
	c0.204,0.269,0.439,0.506,0.703,0.713c0.204,0.268,0.439,0.504,0.702,0.712c0.204,0.267,0.439,0.504,0.702,0.712
	c0.204,0.267,0.439,0.503,0.702,0.711c0.204,0.268,0.439,0.505,0.703,0.713c0.204,0.268,0.439,0.504,0.702,0.712
	c0.204,0.269,0.44,0.505,0.704,0.713c0.204,0.269,0.44,0.505,0.704,0.714c0.203,0.267,0.438,0.502,0.701,0.709
	c0.204,0.269,0.441,0.506,0.705,0.715c0.202,0.266,0.437,0.502,0.698,0.709c0.205,0.269,0.442,0.508,0.708,0.717
	c0.203,0.265,0.437,0.5,0.698,0.707c0.205,0.269,0.441,0.507,0.706,0.716c0.204,0.267,0.439,0.504,0.703,0.712
	c0.203,0.268,0.438,0.503,0.702,0.711c0.204,0.268,0.44,0.504,0.703,0.712c0.203,0.267,0.438,0.503,0.7,0.71
	c0.204,0.27,0.44,0.506,0.705,0.715c0.204,0.268,0.44,0.506,0.704,0.713c0.203,0.267,0.438,0.504,0.701,0.711
	c0.204,0.268,0.44,0.506,0.704,0.713c0.203,0.267,0.438,0.502,0.7,0.711c0.205,0.268,0.441,0.506,0.706,0.715
	c0.203,0.266,0.438,0.502,0.7,0.709c0.204,0.268,0.439,0.505,0.703,0.713c0.204,0.268,0.44,0.506,0.705,0.714
	c0.203,0.267,0.438,0.503,0.701,0.711c0.204,0.267,0.44,0.505,0.703,0.712c0.204,0.268,0.439,0.504,0.702,0.713
	c0.204,0.267,0.439,0.502,0.702,0.711c0.204,0.268,0.44,0.504,0.704,0.713c0.204,0.268,0.44,0.504,0.704,0.713
	c0.203,0.268,0.439,0.504,0.702,0.712c0.203,0.267,0.439,0.504,0.702,0.712c0.204,0.268,0.44,0.505,0.705,0.713
	c0.203,0.268,0.438,0.503,0.7,0.71c0.204,0.269,0.44,0.506,0.704,0.714c0.203,0.268,0.438,0.503,0.701,0.71
	c0.204,0.269,0.44,0.505,0.703,0.714c0.204,0.268,0.44,0.504,0.704,0.713c0.204,0.268,0.439,0.504,0.703,0.711
	c0.203,0.268,0.438,0.504,0.701,0.711c0.204,0.269,0.44,0.506,0.704,0.715c0.204,0.267,0.44,0.504,0.703,0.713
	c0.204,0.266,0.439,0.503,0.702,0.711c0.204,0.267,0.439,0.503,0.702,0.711c0.204,0.268,0.44,0.505,0.704,0.713
	c0.203,0.268,0.438,0.503,0.701,0.711c0.205,0.27,0.442,0.507,0.707,0.717c0.203,0.266,0.437,0.5,0.698,0.707
	c0.205,0.27,0.442,0.508,0.707,0.717c0.203,0.265,0.437,0.5,0.699,0.707c0.204,0.269,0.441,0.506,0.705,0.715
	c0.204,0.267,0.439,0.504,0.702,0.711c0.204,0.268,0.439,0.505,0.703,0.713c0.203,0.267,0.438,0.503,0.701,0.711
	c0.204,0.268,0.441,0.506,0.706,0.715c0.204,0.268,0.439,0.504,0.703,0.712c0.204,0.267,0.439,0.503,0.702,0.711
	c0.204,0.267,0.439,0.504,0.703,0.712c0.204,0.268,0.439,0.504,0.703,0.713c0.203,0.267,0.438,0.502,0.701,0.711
	c0.204,0.268,0.441,0.506,0.705,0.715c0.203,0.266,0.438,0.502,0.701,0.709c0.204,0.268,0.44,0.506,0.704,0.713
	c0.204,0.269,0.44,0.505,0.703,0.714c0.204,0.267,0.439,0.503,0.703,0.711c0.204,0.269,0.439,0.505,0.703,0.713
	c0.203,0.265,0.437,0.501,0.699,0.708c0.205,0.27,0.442,0.508,0.708,0.718c0.203,0.267,0.438,0.503,0.7,0.71
	c0.204,0.268,0.441,0.506,0.705,0.715c0.203,0.266,0.438,0.502,0.701,0.709c0.204,0.268,0.44,0.504,0.704,0.713
	c0.204,0.268,0.44,0.504,0.703,0.713c0.203,0.266,0.438,0.5,0.699,0.709c0.204,0.269,0.441,0.507,0.706,0.716
	c0.203,0.267,0.438,0.502,0.701,0.71c0.204,0.268,0.44,0.505,0.704,0.713c0.204,0.268,0.439,0.504,0.703,0.712
	c0.203,0.267,0.439,0.504,0.702,0.712c0.204,0.268,0.439,0.504,0.703,0.713c0.204,0.268,0.44,0.504,0.704,0.713
	c0.203,0.267,0.439,0.504,0.702,0.711c0.204,0.268,0.44,0.506,0.705,0.713c0.203,0.267,0.437,0.502,0.699,0.709
	c0.204,0.27,0.441,0.508,0.706,0.717c0.203,0.265,0.437,0.5,0.699,0.708c0.204,0.269,0.441,0.506,0.706,0.715
	c0.204,0.269,0.439,0.505,0.703,0.713c0.204,0.267,0.439,0.504,0.703,0.712c0.204,0.266,0.439,0.504,0.702,0.711
	c0.203,0.268,0.439,0.504,0.702,0.711c0.205,0.27,0.441,0.508,0.706,0.717c0.203,0.266,0.438,0.5,0.699,0.707
	c0.204,0.269,0.44,0.506,0.704,0.715c0.204,0.267,0.439,0.504,0.702,0.711c0.204,0.268,0.44,0.506,0.705,0.714
	c0.203,0.267,0.438,0.503,0.701,0.71c0.204,0.268,0.439,0.505,0.703,0.713c0.204,0.268,0.439,0.504,0.703,0.712
	c0.204,0.269,0.439,0.504,0.702,0.712c0.203,0.268,0.438,0.504,0.701,0.711c0.205,0.268,0.441,0.506,0.706,0.715
	c0.203,0.267,0.438,0.504,0.701,0.711c0.204,0.268,0.44,0.504,0.704,0.713c0.203,0.267,0.438,0.502,0.699,0.709
	c0.206,0.27,0.444,0.51,0.709,0.719c0.202,0.265,0.436,0.499,0.696,0.706c0.205,0.269,0.442,0.507,0.707,0.716
	c0.204,0.268,0.439,0.503,0.702,0.711c0.204,0.268,0.439,0.504,0.703,0.713c0.204,0.266,0.439,0.503,0.702,0.711
	c0.204,0.268,0.439,0.504,0.702,0.713c0.204,0.266,0.44,0.504,0.704,0.713c0.203,0.266,0.438,0.502,0.701,0.709
	c0.204,0.27,0.441,0.508,0.706,0.715c0.203,0.268,0.438,0.504,0.7,0.711c0.203,0.267,0.438,0.502,0.701,0.711
	c0.205,0.269,0.442,0.508,0.708,0.717c0.202,0.266,0.437,0.501,0.698,0.707c0.205,0.269,0.442,0.508,0.707,0.717
	c0.203,0.267,0.438,0.502,0.7,0.709c0.204,0.268,0.439,0.504,0.703,0.713c0.204,0.269,0.44,0.505,0.705,0.714
	c0.203,0.267,0.438,0.502,0.7,0.709c0.204,0.269,0.44,0.507,0.705,0.715c0.203,0.266,0.438,0.502,0.7,0.71
	c0.204,0.268,0.44,0.505,0.705,0.714c0.203,0.267,0.439,0.503,0.702,0.711c0.204,0.268,0.44,0.505,0.704,0.713
	c0.204,0.267,0.439,0.504,0.703,0.712c0.203,0.267,0.439,0.504,0.702,0.712c0.205,0.269,0.441,0.506,0.706,0.715
	c0.203,0.266,0.437,0.5,0.698,0.707c0.205,0.27,0.441,0.507,0.706,0.716c0.203,0.267,0.438,0.503,0.701,0.711
	c0.204,0.269,0.441,0.506,0.705,0.715c0.203,0.266,0.438,0.502,0.699,0.709c0.203,0.267,0.439,0.504,0.703,0.712
	c0.203,0.268,0.439,0.505,0.703,0.714c0.203,0.267,0.439,0.503,0.703,0.711c0.203,0.267,0.438,0.504,0.701,0.712
	c0.204,0.268,0.439,0.505,0.704,0.714c0.203,0.267,0.438,0.502,0.7,0.71c0.205,0.27,0.441,0.507,0.708,0.717
	c0.202,0.266,0.437,0.5,0.698,0.707c0.203,0.269,0.438,0.505,0.703,0.714c0.203,0.268,0.438,0.504,0.701,0.712
	c0.204,0.268,0.44,0.506,0.705,0.715c0.203,0.266,0.438,0.502,0.701,0.71c0.204,0.267,0.439,0.504,0.703,0.712
	c0.203,0.267,0.438,0.503,0.701,0.711c0.203,0.268,0.438,0.505,0.703,0.713c0.203,0.268,0.439,0.504,0.703,0.713
	c0.203,0.268,0.438,0.503,0.701,0.711c0.203,0.268,0.439,0.504,0.702,0.712c0.204,0.269,0.44,0.506,0.705,0.715
	c0.203,0.267,0.438,0.503,0.702,0.712c0.203,0.267,0.439,0.504,0.702,0.712c0.202,0.266,0.438,0.503,0.7,0.71
	c0.205,0.268,0.44,0.505,0.705,0.714c0.203,0.268,0.439,0.505,0.703,0.713c0.203,0.267,0.438,0.504,0.702,0.712
	c0.203,0.267,0.439,0.504,0.702,0.712c0.203,0.266,0.438,0.502,0.7,0.71c0.205,0.269,0.44,0.506,0.706,0.714
	c0.201,0.267,0.438,0.502,0.697,0.709c0.205,0.27,0.441,0.506,0.707,0.716c0.203,0.267,0.438,0.502,0.701,0.71
	c0.203,0.269,0.439,0.507,0.704,0.716c0.203,0.266,0.439,0.503,0.702,0.711c0.203,0.266,0.438,0.502,0.7,0.709
	c0.203,0.269,0.44,0.506,0.704,0.715c0.203,0.267,0.439,0.504,0.703,0.712c0.203,0.268,0.439,0.505,0.703,0.714
	c0.203,0.266,0.438,0.502,0.701,0.709c0.202,0.269,0.438,0.505,0.702,0.713c0.204,0.269,0.44,0.505,0.703,0.713
	c0.204,0.268,0.438,0.503,0.702,0.711c0.204,0.268,0.439,0.505,0.703,0.713c0.203,0.267,0.438,0.504,0.701,0.712
	c0.203,0.267,0.439,0.505,0.703,0.713c0.205,0.268,0.44,0.505,0.705,0.714c0.203,0.266,0.438,0.501,0.698,0.709
	c0.204,0.268,0.441,0.506,0.706,0.714c0.202,0.266,0.438,0.502,0.699,0.709c0.204,0.27,0.439,0.506,0.705,0.715
	c0.203,0.268,0.439,0.504,0.701,0.712c0.203,0.268,0.439,0.504,0.703,0.713c0.203,0.267,0.438,0.502,0.701,0.71
	c0.205,0.269,0.439,0.506,0.703,0.714c0.204,0.268,0.44,0.505,0.705,0.714c0.202,0.266,0.438,0.501,0.699,0.708
	c0.204,0.269,0.441,0.507,0.706,0.717c0.203,0.266,0.438,0.502,0.7,0.709c0.204,0.268,0.439,0.506,0.705,0.715
	c0.203,0.266,0.438,0.502,0.699,0.709c0.203,0.268,0.438,0.503,0.7,0.71c0.205,0.271,0.442,0.509,0.708,0.718
	c0.203,0.268,0.438,0.503,0.701,0.71c0.203,0.268,0.438,0.503,0.701,0.712c0.204,0.268,0.439,0.506,0.705,0.715
	c0.203,0.266,0.438,0.502,0.7,0.709c0.204,0.268,0.439,0.506,0.704,0.715c0.203,0.265,0.438,0.501,0.699,0.708
	c0.204,0.269,0.441,0.506,0.705,0.715c0.203,0.267,0.438,0.503,0.7,0.71c0.204,0.27,0.441,0.506,0.706,0.715
	c0.203,0.268,0.438,0.504,0.702,0.712c0.203,0.268,0.438,0.503,0.702,0.712c0.203,0.268,0.438,0.503,0.701,0.711
	c0.203,0.268,0.438,0.504,0.701,0.711c0.204,0.269,0.44,0.507,0.705,0.716c0.203,0.266,0.438,0.502,0.701,0.71
	c0.203,0.268,0.439,0.505,0.703,0.713c0.204,0.267,0.438,0.504,0.703,0.712c0.204,0.268,0.439,0.505,0.704,0.714
	c0.203,0.265,0.438,0.501,0.698,0.708c0.204,0.268,0.44,0.506,0.704,0.714c0.203,0.268,0.439,0.504,0.702,0.712
	c0.204,0.269,0.44,0.506,0.705,0.715c0.203,0.267,0.438,0.502,0.7,0.709c0.204,0.269,0.439,0.507,0.705,0.716
	c0.203,0.266,0.438,0.501,0.699,0.708c0.204,0.269,0.439,0.506,0.704,0.715c0.203,0.268,0.439,0.505,0.704,0.713
	c0.203,0.267,0.438,0.503,0.7,0.71c0.203,0.268,0.439,0.504,0.702,0.712c0.204,0.268,0.44,0.505,0.705,0.714
	c0.203,0.266,0.438,0.503,0.7,0.71c0.204,0.269,0.439,0.505,0.704,0.714c0.203,0.267,0.438,0.502,0.7,0.709
	c0.203,0.269,0.439,0.506,0.704,0.715c0.105,0.14,0.242,0.246,0.363,0.369C420.14,475.398,491.825,396.641,508.367,299.109z"/>
<g id="Whiteboard">
	<path fill="#F5F5F5" stroke="#000000" stroke-miterlimit="10" d="M292.313,267.593c0,2.209-1.791,4-4,4H100.936
		c-2.209,0-4-1.791-4-4V148.425c0-2.209,1.791-4,4-4h187.375c2.209,0,4,1.791,4,4v119.168H292.313z"/>
	<g>
		<path fill="#282829" d="M196.777,190.105v15.817h15.211v4.039h-15.211v15.951h-4.308v-15.951h-15.211v-4.039h15.211v-15.817
			H196.777z"/>
	</g>
	<g>
		<polygon points="201.795,271.593 228.127,307.173 233.783,307.173 207.452,271.593 		"/>
		<polygon points="181.795,271.593 155.465,307.173 161.121,307.173 187.452,271.593 		"/>
	</g>
</g>
<g id="Man">
	<path fill="#FECD9A" d="M411.886,360.545c0,3.883-3.146,7.03-7.027,7.03H264.775c-3.881,0-7.028-3.147-7.028-7.03V220.464
		c0-3.882,3.147-7.029,7.028-7.029h140.082c3.883,0,7.027,3.147,7.027,7.029L411.886,360.545L411.886,360.545z"/>
	<path fill="#FFFFFF" stroke="#BDAAA4" stroke-miterlimit="10" d="M334.741,355.813c15.097,0,27.335-11.858,27.335-20.578
		l-54.67,4.793C307.406,348.745,319.644,355.813,334.741,355.813z"/>
	<path fill="none" stroke="#3E2723" stroke-linecap="round" stroke-miterlimit="10" d="M371.16,337.631
		c0-6.34-5.139-11.48-11.479-11.48h-0.002"/>
	<path fill="#434343" stroke="#000000" stroke-width="2" stroke-miterlimit="10" d="M382.961,279.924h-34.144
		c-1.508,0-2.836,0.709-3.715,1.799H324.38c-0.88-1.09-2.208-1.799-3.716-1.799H286.52c-2.646,0-4.791,2.146-4.791,4.792v18.769
		c0,2.646,2.146,4.793,4.791,4.793h34.145c2.646,0,4.792-2.146,4.792-4.793v-18.271h18.569v18.271c0,2.646,2.146,4.793,4.792,4.793
		h34.144c2.646,0,4.792-2.146,4.792-4.793v-18.769C387.753,282.068,385.607,279.924,382.961,279.924z"/>
	<g opacity="0.75">
		<polygon fill="#FFFFFF" points="360.311,281.122 354.096,307.078 362.174,307.078 368.386,281.122 		"/>
		<polygon fill="#FFFFFF" points="356.604,281.122 350.391,307.078 352.545,307.078 358.757,281.122 		"/>
	</g>
	<g opacity="0.75">
		<polygon fill="#FFFFFF" points="296.914,281.122 290.702,307.078 298.778,307.078 304.991,281.122 		"/>
		<polygon fill="#FFFFFF" points="293.209,281.122 286.995,307.078 289.148,307.078 295.361,281.122 		"/>
	</g>
	<rect x="287.216" y="270.541" fill="#3E2723" width="33.226" height="5.391"/>
	<rect x="349.193" y="270.541" fill="#3E2723" width="33.225" height="5.391"/>
	<path opacity="0.1" fill="#FFFFFF" enable-background="new    " d="M257.747,278.156v82.389c0,3.883,3.147,7.03,7.028,7.03h47.929
		C285.62,348.695,265.38,316.508,257.747,278.156z"/>
	<path fill="#3E2723" d="M414.913,207.445c0-4.631-3.755-8.386-8.387-8.386H262.955c-4.631,0-8.385,3.754-8.385,8.386
		c0,0-0.339,79.521,0,92.546c0.789,12.28,3.177,11.681,3.177,11.681v-9.078c0,0,5.208-6.195,5.208-14.882s0-35.94,0-35.94h143.571
		c0,0,0,27.255,0,35.94s5.209,14.882,5.209,14.882v9.078c0,0,2.389,0.6,3.178-11.681
		C415.251,286.966,414.913,207.445,414.913,207.445z"/>
</g>
<text transform="matrix(1 0 0 1 107.7896 416)" fill="#8BC34A" font-family="'Roboto-Regular'" font-size="36.4915">Join existing class</text>
</svg>
